<?xml version="1.0" encoding="UTF-8"?><svg id="a" xmlns="http://www.w3.org/2000/svg" width="733" height="189.8" viewBox="0 0 733 189.8"><path d="m0,86c.5-.2,1.2-.2,1.5-.6.9-1.2,1.6-2.5,2.3-3.7h7.6v-19.3h27.2v25.2c2.3.8,4.5,1.7,7.5,2.8v-42.5c5.4-6.7,11.2-10.5,20.3-7v24.4c3.6-.2,6.2-.4,9.4-.6v-11.9c5.9-.9,8.4.8,8.7,6,.6,9.6.8,19.3,1.4,28.9.1,2.2,1.3,4.3,2,6.5l.9-.2v9.1c2.1.2,3.9.4,5.3.5,1.7,1.7,3.1,3,4.5,4.4.3-.2.7-.4,1-.6v-10.9c.2,0,.4,0,.6.1,1.3-1.8,2.6-3.7,4.1-5.8,1.4,1.8,2.5,3.3,4.1,5.4v9.7c.3,0,.7,0,1,0,.3-4.8.7-9.6,1-14.6,2.5-.4,4.9-.8,6.9-1.1,2.3-6.3,1.8-13.6,10.1-15.8v-6.9h12.4c.4-20.3.7-40.3,1.1-60.3.5-.2,1-.4,1.5-.6,6,5.2,11.9,10.4,18,15.7.7,21.8,1.3,43.6,2,65.5h3.5c1-3.6,1.9-7,2.8-10.3,1.3-1.2,2.6-2.3,3.7-3.5,4.5-4.7,9.5-4.5,13.7.9,1.2-2.4,1.9-5.1,3.6-7,1.7-2,4.4-3.2,7.2-5.1,4,3.8,7.8,7.5,12.3,11.9.4-3.5.7-6.3,1-9.7,5.7.5,11.5,1,17.7,1.5v18.4h7.6c2.1,3.3,4,6.4,6.2,10,7.1-.6,9.3,7.1,14.2,10,1.2,2,2.2,3.6,3.2,5.3.8-26.3,1.6-52.6,2.4-79.1,10-5.4,8-15.3,9.1-24.1,0,9.6,2.4,18.4,10.5,25.8v58.7h12.8v6.9c8.1,2,7.9,9.2,10.1,15.8,2,.3,4.3.8,7,1.2.3,4.6.6,9.3.9,14,.3,0,.5,0,.8,0v-8.8c1.7-2.3,2.9-3.9,4.3-5.9,1.4,2,2.7,3.8,3.9,5.6.2,0,.5-.1.7-.2v10.2c2.4-1,4-1.7,5.7-2.4,0-.2-.1-.3-.2-.5,1.7-.1,3.3-.2,5.3-.4v-8.9c.3,0,.7.1,1,.2.7-2.5,2-5,2.1-7.5.6-9.3.8-18.6,1.3-27.9.3-5.5,2.7-7.2,8.5-6.4.2,3.8.3,7.7.5,11.9,2.9.2,5.6.4,9,.7v-25.2h20.2v50.1c3-1,5.2-1.7,7.6-2.4v-25.4h27.3v19.2h7.6c.9,1.3,1.9,2.8,3.3,4.9.5-3.9.9-7.5,1.3-11.2h3.4c.3,1.2.5,2.2.7,3.5.8.2,1.7.4,3,.8,0-2,0-3.6,0-5.3-.1-2.9.2-5.4,2.6-7.8,1.5-1.5,1.9-4,2.8-6.2,3.3-.2,6.9-.5,10.6-.8v6.8h12.3c.4,3.5.8,6.9,1.2,10.4,1.7.3,3.1.5,4.8.8v-23.2h24.2v-7.6c1.5-2.3,2.8-4.2,4-6h7.4v-10.5c4.8-3.6,9.1-7.4,13.6-9.8,5.1,3.7,9.3,6.6,13.7,9.8v16.4c2.3.9,4.6,1.7,7.5,2.8V31.5c5.4-6.8,11.2-10.5,20.3-7v24.4c3.6-.3,6.2-.5,9.2-.7.2-4.2.4-8.1.5-11.9,5.8-.8,8.1.9,8.5,6.4.5,9.4.8,18.8,1.3,28.2.1,2.3,1.2,4.6,1.9,6.9.3,0,.7-.1,1-.2v9.1c2.1.2,3.9.4,5.2.5,1.8,1.7,3.2,3.1,4.5,4.4.3-.2.7-.4,1-.6v-9.9c1.9-2.7,3.2-4.6,4.7-6.7,1.4,1.8,2.5,3.3,4.1,5.4v9.7c.3,0,.7,0,1,0,.3-4.8.6-9.7,1-14.6,2.5-.4,4.9-.8,6.9-1.1,2.4-6.3,1.9-13.7,10.1-15.8v-6.9h12.6V12.8c4.2-4.1,8.7-8.3,13.4-12.8,2.7,2.3,4.9,4.2,7,6.1.7,21.9,1.3,43.6,2,65.5h3.4c1-3.6,1.9-7,3-11,2.4-1.7,5.1-4.3,8.2-5.7,3.7-1.6,6.9.3,9.4,4.7.9-6.7,4.6-10.3,10.8-12.5,3.5,3.4,7.3,7,11.5,11.1.5-2,.9-3.7,1.3-5.3,5.3-4.7,11.4-3.3,17.9-2.3v18.2h7.1c4.6,4.9,7,10.4,6.7,17.2,1.5-.4,2.4-.6,3.7-.9v104.2c-2,0-3.9,0-5.9,0-218.5,0-437,0-655.5,0-22.8,0-45.6.1-68.4.2-1.1,0-2.1.1-3.2.2,0-34.6,0-69.2,0-103.7Z"/></svg>